<svg width="620" height="291" viewBox="0 0 620 291" fill="none" xmlns="http://www.w3.org/2000/svg">
<g clip-path="url(#clip0_106_193)">
<path d="M190.3 53.75C192.11 47.2 196.26 41.33 195.91 34.15C195.77 31.21 195.8 28.25 195.75 25.31C205.54 47.46 202.6 74 181.25 92.25C168.78 102.91 154.2 110.04 139.81 117.49C126.71 124.27 113.67 131.1 102.21 140.58C84.3496 155.36 75.8196 174.8 72.9296 197.27C72.3796 201.57 72.9996 206.08 70.9496 210.16C69.5496 200.86 67.7396 191.62 67.8096 182.16C69.4696 165.62 75.1796 150.77 85.8496 137.83C96.9596 124.36 111.26 115.14 126.27 106.82C140.46 98.95 155.44 92.48 168.8 83.13C179.3 75.78 187.35 66.62 190.3 53.75Z" fill="#121213"/>
<path d="M184.68 143.07C184.68 145.36 184.13 147.4 183.03 149.18C181.93 150.96 180.23 151.85 177.95 151.85C175.48 151.85 173.6 151.2 172.3 149.89C171 148.58 170.35 147.15 170.35 145.57C170.35 144.58 170.43 143.68 170.58 142.87C170.73 142.06 170.88 141.25 171.01 140.44C168.94 140.44 166.52 141.3 163.75 143.01C160.98 144.72 158.62 147.15 156.68 150.3V189.05C156.68 190.63 156.98 191.91 157.57 192.9C158.16 193.89 159.1 194.63 160.38 195.13C161.48 195.58 162.9 195.92 164.64 196.14C166.38 196.37 167.89 196.52 169.16 196.61V201.07H134.82V196.61C135.83 196.52 136.88 196.43 137.96 196.34C139.04 196.25 139.97 196.07 140.77 195.8C142 195.4 142.92 194.69 143.51 193.68C144.1 192.67 144.4 191.35 144.4 189.74V148.68C144.4 147.29 144.08 145.92 143.44 144.57C142.8 143.22 141.91 142.14 140.77 141.33C139.93 140.79 138.94 140.4 137.8 140.15C136.65 139.9 135.42 139.73 134.1 139.64V135.18L155.76 133.7L156.68 134.64V144.02H157.01C159.74 140.38 162.78 137.61 166.12 135.72C169.46 133.83 172.53 132.88 175.3 132.88C178.07 132.88 180.33 133.8 182.07 135.65C183.81 137.5 184.68 139.97 184.68 143.08V143.07Z" fill="#D2AB78"/>
<path d="M253.75 167.1C253.75 171.78 253.02 176.38 251.57 180.9C250.11 185.42 248.04 189.26 245.36 192.41C242.32 196.01 238.79 198.69 234.78 200.44C230.77 202.2 226.27 203.07 221.29 203.07C217.15 203.07 213.2 202.27 209.46 200.67C205.71 199.07 202.39 196.74 199.48 193.68C196.62 190.67 194.33 186.99 192.64 182.64C190.94 178.3 190.1 173.43 190.1 168.03C190.1 157.63 193.06 149.13 198.99 142.51C204.92 135.89 212.68 132.59 222.29 132.59C231.9 132.59 238.94 135.73 244.86 142.01C250.79 148.29 253.75 156.65 253.75 167.09V167.1ZM240.08 167.24C240.08 163.86 239.75 160.3 239.09 156.54C238.43 152.78 237.44 149.6 236.11 146.99C234.7 144.2 232.85 141.96 230.55 140.27C228.26 138.58 225.46 137.74 222.15 137.74C218.84 137.74 215.86 138.6 213.45 140.31C211.05 142.02 209.1 144.36 207.6 147.33C206.19 150.08 205.2 153.2 204.62 156.71C204.05 160.22 203.76 163.62 203.76 166.9C203.76 171.22 204.1 175.21 204.79 178.88C205.47 182.55 206.56 185.82 208.06 188.7C209.56 191.58 211.44 193.84 213.72 195.48C215.99 197.12 218.8 197.94 222.15 197.94C227.66 197.94 232.03 195.22 235.25 189.77C238.47 184.33 240.08 176.81 240.08 167.22V167.24Z" fill="#D2AB78"/>
<path d="M262.249 211.7C262.249 209.45 262.849 207.62 264.069 206.2C265.279 204.78 266.789 204.07 268.589 204.07C269.999 204.07 271.209 204.34 272.219 204.87C273.229 205.41 274.139 206.1 274.929 206.95C275.589 207.62 276.289 208.54 277.039 209.7C277.789 210.86 278.379 211.82 278.819 212.58C280.389 211.71 283.759 207.22 285.539 204.74C286.299 203.69 286.949 202.57 287.509 201.41L289.259 197.74C285.079 187.08 281.289 177.54 277.909 169.13C274.519 160.72 270.979 152.01 267.279 143.01C266.439 140.94 265.029 139.33 263.049 138.18C261.069 137.03 259.089 136.3 257.109 135.99V131.53H286.839V136.26C285.519 136.31 283.929 136.59 282.089 137.1C280.239 137.62 279.319 138.21 279.319 138.89C279.319 139.16 279.419 139.61 279.619 140.24C279.819 140.87 280.049 141.52 280.309 142.2C281.979 146.65 284.519 153.07 287.949 161.46C291.369 169.85 294.029 176.56 295.919 181.59C297.899 176.78 299.959 171.8 302.099 166.65C304.239 161.5 306.629 155.42 309.269 148.41C309.579 147.56 310.019 146.38 310.589 144.87C311.159 143.36 311.449 142.07 311.449 140.99C311.449 139.82 310.449 138.73 308.449 137.72C306.449 136.71 304.539 136.09 302.739 135.86V131.54H326.919V135.73C325.599 135.96 323.859 136.73 321.699 138.06C319.539 139.39 317.939 141.27 316.879 143.7C311.639 156.12 306.989 167.44 302.919 177.65C298.849 187.87 295.749 195.38 293.639 200.2C290.869 206.5 290.289 206.83 290.289 206.83C290.289 206.83 285.989 213.14 283.919 215.17C281.889 217.06 280.059 218.33 278.409 218.98C276.759 219.63 275.049 219.96 273.289 219.96C269.859 219.96 267.159 219.13 265.199 217.46C263.239 215.79 262.259 213.88 262.259 211.72V211.7H262.249Z" fill="#D2AB78"/>
<path d="M391.36 199.84C389.29 200.61 387.48 201.22 385.91 201.7C384.35 202.17 382.58 202.41 380.59 202.41C377.16 202.41 374.42 201.59 372.37 199.95C370.32 198.31 369.01 195.91 368.44 192.76H368.04C365.18 196 362.11 198.48 358.83 200.19C355.55 201.9 351.6 202.76 346.98 202.76C342.09 202.76 338.08 201.23 334.93 198.17C331.78 195.11 330.21 191.11 330.21 186.15C330.21 183.58 330.56 181.29 331.27 179.26C331.98 177.23 333.03 175.41 334.44 173.79C335.54 172.44 336.99 171.24 338.8 170.18C340.6 169.12 342.3 168.28 343.88 167.65C345.86 166.88 349.88 165.47 355.93 163.4C361.98 161.33 366.07 159.71 368.18 158.54V151.86C368.18 151.28 368.06 150.15 367.82 148.48C367.58 146.82 367.06 145.24 366.27 143.76C365.39 142.1 364.15 140.64 362.54 139.41C360.93 138.17 358.65 137.55 355.71 137.55C353.68 137.55 351.8 137.9 350.06 138.6C348.32 139.3 347.1 140.03 346.39 140.79C346.39 141.69 346.6 143.02 347.02 144.77C347.44 146.52 347.65 148.14 347.65 149.63C347.65 151.21 346.96 152.65 345.57 153.95C344.18 155.25 342.26 155.91 339.79 155.91C337.59 155.91 335.97 155.11 334.94 153.51C333.9 151.91 333.39 150.12 333.39 148.14C333.39 146.16 334.1 144.09 335.54 142.2C336.98 140.31 338.83 138.62 341.12 137.14C343.1 135.88 345.5 134.81 348.32 133.93C351.14 133.05 353.89 132.61 356.57 132.61C360.27 132.61 363.49 132.87 366.24 133.39C368.99 133.91 371.49 135.02 373.73 136.73C375.98 138.39 377.68 140.66 378.85 143.51C380.02 146.37 380.6 150.05 380.6 154.55C380.6 160.99 380.53 166.69 380.4 171.66C380.27 176.63 380.2 182.07 380.2 187.96C380.2 189.71 380.5 191.11 381.09 192.15C381.68 193.19 382.6 194.06 383.83 194.78C384.49 195.19 385.54 195.41 386.97 195.46C388.4 195.51 389.86 195.53 391.36 195.53V199.85V199.84ZM368.32 164.2C364.58 165.33 361.3 166.43 358.48 167.51C355.66 168.59 353.04 169.95 350.62 171.57C348.42 173.1 346.68 174.92 345.4 177.02C344.12 179.12 343.48 181.61 343.48 184.5C343.48 188.24 344.44 190.99 346.35 192.75C348.27 194.51 350.7 195.39 353.65 195.39C356.77 195.39 359.53 194.61 361.9 193.06C364.27 191.51 366.28 189.67 367.91 187.55L368.31 164.21H368.32V164.2Z" fill="#D2AB78"/>
<path d="M428.34 201.06H396.58V196.6C397.59 196.51 398.67 196.41 399.82 196.3C400.96 196.19 401.91 196.02 402.66 195.79C403.89 195.39 404.82 194.68 405.43 193.66C406.05 192.65 406.35 191.33 406.35 189.71V112.56C406.35 110.94 406.01 109.42 405.33 108C404.65 106.58 403.75 105.47 402.66 104.66C401.87 104.12 400.41 103.62 398.3 103.17C396.19 102.72 394.49 102.45 393.22 102.36V98.04L417.72 96.55L418.64 97.56V188.89C418.64 190.47 418.93 191.76 419.5 192.77C420.07 193.78 421 194.56 422.27 195.1C423.24 195.55 424.2 195.89 425.14 196.11C426.09 196.34 427.15 196.49 428.34 196.58V201.06Z" fill="#D2AB78"/>
<path d="M479.51 168.45C481.31 170.07 482.7 171.94 483.67 174.05C484.64 176.17 485.12 178.75 485.12 181.81C485.12 187.98 482.86 193.02 478.35 196.93C473.84 200.85 467.99 202.8 460.82 202.8C457.03 202.8 453.55 202.1 450.35 200.71C447.16 199.32 444.88 198.03 443.52 196.86L442.2 201.25H437.25L436.59 178.1H441.15C441.5 179.86 442.25 181.92 443.4 184.26C444.54 186.61 445.93 188.73 447.56 190.63C449.28 192.62 451.33 194.29 453.73 195.64C456.13 196.99 458.82 197.67 461.82 197.67C466.05 197.67 469.3 196.69 471.59 194.72C473.88 192.75 475.02 189.93 475.02 186.27C475.02 184.38 474.66 182.75 473.93 181.38C473.2 180.01 472.14 178.8 470.73 177.77C469.28 176.74 467.49 175.8 465.38 174.97C463.27 174.14 460.91 173.32 458.31 172.51C456.24 171.88 453.94 171.02 451.41 169.91C448.88 168.81 446.71 167.51 444.91 166.03C442.97 164.46 441.39 162.52 440.16 160.22C438.93 157.93 438.31 155.22 438.31 152.12C438.31 146.68 440.29 142.06 444.25 138.28C448.21 134.5 453.52 132.61 460.16 132.61C462.71 132.61 465.32 132.95 467.98 133.62C470.64 134.3 472.81 135.11 474.48 136.05L476 132.54H480.75L481.74 153.94H477.18C476.26 149.15 474.26 145.25 471.2 142.25C468.14 139.25 464.41 137.74 460.01 137.74C456.4 137.74 453.56 138.67 451.49 140.53C449.42 142.39 448.39 144.63 448.39 147.26C448.39 149.29 448.73 150.97 449.41 152.32C450.09 153.67 451.12 154.82 452.48 155.76C453.8 156.66 455.46 157.51 457.47 158.29C459.47 159.08 461.95 159.97 464.9 160.96C467.81 161.9 470.55 163.01 473.12 164.27C475.7 165.53 477.82 166.93 479.49 168.46H479.51V168.45Z" fill="#D2AB78"/>
<path d="M51.86 274.32C49.41 279.08 46.14 282.87 42.03 285.7C37.92 288.52 33.21 289.94 27.88 289.94C23.18 289.94 19.07 289.09 15.54 287.4C12.01 285.71 9.1 283.41 6.81 280.5C4.52 277.59 2.81 274.21 1.69 270.33C0.57 266.45 0 262.36 0 258.05C0 254.18 0.6 250.38 1.81 246.64C3.01 242.91 4.78 239.55 7.11 236.56C9.36 233.7 12.15 231.39 15.49 229.63C18.82 227.87 22.57 227 26.71 227C30.85 227 34.62 227.69 37.66 229.06C40.7 230.43 43.17 232.31 45.06 234.69C46.88 236.95 48.23 239.61 49.12 242.68C50.01 245.75 50.45 249.07 50.45 252.66V256.65H11.77C11.77 260.57 12.13 264.13 12.87 267.33C13.6 270.52 14.75 273.33 16.33 275.76C17.87 278.1 19.88 279.96 22.37 281.31C24.86 282.66 27.82 283.34 31.25 283.34C34.68 283.34 37.79 282.5 40.34 280.82C42.89 279.14 45.34 276.11 47.71 271.73L51.85 274.33L51.86 274.32ZM38.78 251.57C38.78 249.32 38.59 246.9 38.22 244.33C37.84 241.76 37.24 239.6 36.41 237.87C35.5 236.02 34.26 234.51 32.68 233.35C31.1 232.18 29.07 231.6 26.58 231.6C22.44 231.6 18.99 233.36 16.25 236.88C13.51 240.4 12.02 245.3 11.78 251.57H38.78Z" fill="#1D1D1B"/>
<path d="M114.85 288.36H88.0901V284.37C89.8701 284.17 91.3901 283.97 92.6401 283.77C93.8901 283.57 94.5101 283.04 94.5101 282.2C94.5101 281.84 94.3101 281.27 93.9201 280.51C93.5301 279.74 93.1301 279.04 92.7401 278.39C91.7501 276.82 90.4001 274.71 88.6801 272.06C86.9601 269.42 84.8601 266.26 82.3701 262.58C80.3101 265.2 78.4101 267.76 76.6801 270.24C74.9401 272.72 73.1201 275.36 71.2201 278.14C70.9401 278.54 70.6601 279.05 70.3601 279.65C70.0601 280.26 69.9201 280.74 69.9201 281.1C69.9201 281.99 70.4801 282.72 71.6101 283.31C72.7401 283.9 74.4301 284.29 76.6901 284.49V288.36H55.0801V284.61C57.7601 283.8 59.9201 282.82 61.5601 281.67C63.2001 280.52 64.7101 279.1 66.0901 277.4C67.3101 275.78 69.0201 273.55 71.2201 270.72C73.4101 267.89 76.2501 264.04 79.7301 259.18C77.7201 256.24 75.2601 252.66 72.3601 248.41C69.4601 244.17 67.0601 240.64 65.1601 237.82C64.1301 236.29 62.9601 235.05 61.6301 234.1C60.3101 233.15 58.4401 232.68 56.0301 232.68V228.69H81.4301V232.68C80.1701 232.68 78.9301 232.76 77.7101 232.92C76.4901 233.08 75.8801 233.44 75.8801 234.01C75.8801 234.37 76.0001 234.78 76.2401 235.22C76.4801 235.66 76.7701 236.15 77.1301 236.67C78.0001 238.04 79.3501 240.16 81.1801 243.02C83.0101 245.88 84.9901 248.91 87.1201 252.1C88.5001 250.16 90.1201 247.91 91.9601 245.32C93.8001 242.73 95.4901 240.28 97.0301 237.94C97.1901 237.66 97.3501 237.3 97.5001 236.88C97.6601 236.46 97.7401 236.04 97.7401 235.64C97.7401 234.79 97.0601 234.12 95.6901 233.61C94.3201 233.11 93.0301 232.75 91.8001 232.55V228.68H113.35V232.43C110.31 233.24 107.94 234.2 106.25 235.3C104.55 236.41 103.11 237.69 101.93 239.14C100.63 240.79 99.0801 242.83 97.2901 245.25C95.5001 247.67 92.9801 251.06 89.7501 255.42C93.3401 260.58 96.2601 264.82 98.5101 268.13C100.76 271.44 103.03 274.85 105.32 278.36C106.46 280.14 107.74 281.54 109.14 282.57C110.54 283.6 112.47 284.19 114.91 284.36V288.35H114.85V288.36Z" fill="#1D1D1B"/>
<path d="M155.88 285.76C153.31 286.85 150.89 287.77 148.6 288.51C146.31 289.25 143.51 289.63 140.19 289.63C135.3 289.63 131.85 288.37 129.86 285.85C127.87 283.33 126.87 279.77 126.87 275.17V234.75H116.33V228.94H127.11V214.36H137.89V228.94H154.64V234.75H138V268.09C138 270.59 138.09 272.68 138.27 274.35C138.45 276.02 138.87 277.49 139.54 278.74C140.17 279.91 141.12 280.8 142.38 281.4C143.64 282.01 145.34 282.31 147.47 282.31C148.46 282.31 149.91 282.22 151.82 282.04C153.73 281.86 155.09 281.63 155.88 281.34V285.76Z" fill="#1D1D1B"/>
<path d="M213.55 274.32C211.1 279.08 207.83 282.87 203.72 285.7C199.61 288.52 194.9 289.94 189.57 289.94C184.87 289.94 180.76 289.09 177.23 287.4C173.7 285.71 170.79 283.41 168.5 280.5C166.21 277.59 164.5 274.21 163.38 270.33C162.26 266.45 161.69 262.36 161.69 258.05C161.69 254.18 162.29 250.38 163.5 246.64C164.7 242.91 166.47 239.55 168.8 236.56C171.05 233.7 173.84 231.39 177.18 229.63C180.51 227.87 184.26 227 188.4 227C192.54 227 196.31 227.69 199.35 229.06C202.39 230.43 204.86 232.31 206.75 234.69C208.57 236.95 209.92 239.61 210.81 242.68C211.7 245.75 212.14 249.07 212.14 252.66V256.65H173.48C173.48 260.57 173.84 264.13 174.58 267.33C175.31 270.52 176.46 273.33 178.04 275.76C179.58 278.1 181.59 279.96 184.08 281.31C186.57 282.66 189.53 283.34 192.96 283.34C196.39 283.34 199.5 282.5 202.05 280.82C204.6 279.14 207.05 276.11 209.42 271.73L213.56 274.33H213.55V274.32ZM200.47 251.57C200.47 249.32 200.28 246.9 199.91 244.33C199.53 241.76 198.93 239.6 198.1 237.87C197.19 236.02 195.95 234.51 194.37 233.35C192.79 232.18 190.76 231.6 188.27 231.6C184.13 231.6 180.68 233.36 177.94 236.88C175.2 240.4 173.71 245.3 173.47 251.57H200.47Z" fill="#1D1D1B"/>
<path d="M284.78 288.36H256.24V284.37C257.15 284.29 258.14 284.21 259.23 284.13C260.31 284.05 261.21 283.89 261.92 283.65C263.02 283.29 263.84 282.65 264.38 281.74C264.91 280.83 265.18 279.65 265.18 278.2V247.52C265.18 243.28 264.2 240.02 262.24 237.72C260.28 235.42 257.9 234.27 255.09 234.27C252.99 234.27 251.07 234.6 249.33 235.27C247.59 235.94 246.05 236.75 244.7 237.72C243.39 238.65 242.36 239.65 241.58 240.72C240.81 241.79 240.24 242.65 239.89 243.29V277.6C239.89 278.97 240.17 280.1 240.72 280.99C241.27 281.88 242.1 282.56 243.21 283.05C244.04 283.45 244.94 283.76 245.9 283.96C246.87 284.16 247.86 284.3 248.89 284.38V288.37H220.29V284.38C221.2 284.3 222.13 284.22 223.1 284.14C224.07 284.06 224.91 283.9 225.62 283.66C226.72 283.3 227.54 282.66 228.08 281.76C228.61 280.85 228.88 279.67 228.88 278.22V241.41C228.88 240.04 228.59 238.78 228.02 237.63C227.45 236.48 226.65 235.55 225.62 234.82C224.87 234.34 223.98 233.98 222.95 233.76C221.92 233.54 220.82 233.39 219.63 233.31V229.32L239.05 227.99L239.88 228.84V237.25H240.18C241.13 236.28 242.31 235.12 243.73 233.77C245.15 232.42 246.49 231.32 247.76 230.47C249.22 229.5 250.96 228.7 252.97 228.05C254.98 227.41 257.25 227.08 259.78 227.08C265.38 227.08 269.54 228.87 272.24 232.44C274.94 236.01 276.3 240.76 276.3 246.69V277.73C276.3 279.14 276.54 280.28 277.01 281.15C277.48 282.02 278.29 282.69 279.44 283.18C280.39 283.58 281.21 283.87 281.9 284.03C282.59 284.19 283.55 284.31 284.77 284.39V288.38V288.36H284.78Z" fill="#1D1D1B"/>
<path d="M330.48 259.13C332.1 260.58 333.34 262.26 334.21 264.15C335.08 266.05 335.51 268.37 335.51 271.11C335.51 276.64 333.49 281.16 329.44 284.67C325.39 288.18 320.15 289.93 313.72 289.93C310.33 289.93 307.2 289.3 304.34 288.05C301.48 286.8 299.43 285.65 298.21 284.6L297.03 288.53H292.59L292 267.77H296.08C296.4 269.35 297.07 271.19 298.09 273.3C299.12 275.4 300.36 277.31 301.82 279.01C303.36 280.79 305.2 282.29 307.36 283.5C309.51 284.71 311.93 285.32 314.61 285.32C318.4 285.32 321.32 284.44 323.37 282.67C325.42 280.9 326.45 278.38 326.45 275.09C326.45 273.4 326.12 271.93 325.47 270.7C324.82 269.47 323.86 268.39 322.6 267.46C321.3 266.53 319.7 265.7 317.81 264.95C315.91 264.2 313.8 263.47 311.47 262.74C309.61 262.18 307.55 261.4 305.28 260.41C303.01 259.42 301.07 258.26 299.45 256.93C297.71 255.52 296.29 253.78 295.19 251.73C294.08 249.67 293.53 247.25 293.53 244.47C293.53 239.59 295.31 235.45 298.86 232.06C302.41 228.67 307.17 226.98 313.13 226.98C315.42 226.98 317.76 227.28 320.15 227.89C322.54 228.5 324.48 229.22 325.98 230.07L327.34 226.92H331.6L332.49 246.1H328.41C327.58 241.81 325.79 238.31 323.05 235.62C320.31 232.93 316.96 231.58 313.01 231.58C309.77 231.58 307.23 232.41 305.37 234.08C303.51 235.75 302.59 237.76 302.59 240.11C302.59 241.93 302.9 243.44 303.51 244.65C304.12 245.86 305.04 246.89 306.26 247.74C307.44 248.55 308.93 249.3 310.73 250.01C312.52 250.72 314.75 251.51 317.39 252.4C320 253.25 322.45 254.24 324.76 255.37C327.07 256.5 328.97 257.75 330.47 259.12H330.48V259.13Z" fill="#1D1D1B"/>
<path d="M372.64 288.36H344.46V284.37C345.37 284.29 346.3 284.21 347.27 284.13C348.24 284.05 349.08 283.89 349.79 283.65C350.89 283.29 351.71 282.65 352.25 281.75C352.79 280.85 353.05 279.66 353.05 278.21V241.4C353.05 240.11 352.76 238.93 352.19 237.86C351.62 236.79 350.82 235.9 349.79 235.17C349.04 234.69 347.95 234.27 346.53 233.93C345.11 233.59 343.81 233.38 342.62 233.29V229.3L363.22 227.97L364.05 228.82V277.47C364.05 278.88 364.31 280.05 364.84 280.98C365.37 281.91 366.2 282.59 367.34 283.04C368.2 283.4 369.05 283.7 369.87 283.92C370.69 284.14 371.61 284.29 372.63 284.37V288.36H372.64Z" fill="#1D1D1B"/>
<path d="M436.82 257.92C436.82 262.12 436.17 266.24 434.86 270.3C433.56 274.35 431.7 277.79 429.29 280.62C426.56 283.85 423.4 286.25 419.81 287.82C416.21 289.39 412.18 290.18 407.72 290.18C404.01 290.18 400.47 289.46 397.11 288.03C393.75 286.6 390.77 284.51 388.16 281.77C385.59 279.07 383.55 275.77 382.03 271.88C380.51 267.99 379.75 263.62 379.75 258.78C379.75 249.46 382.41 241.84 387.72 235.9C393.03 229.97 400 227 408.61 227C417.22 227 423.54 229.81 428.85 235.44C434.16 241.07 436.82 248.56 436.82 257.92ZM424.56 258.04C424.56 255.01 424.26 251.82 423.67 248.45C423.08 245.08 422.19 242.23 421 239.89C419.73 237.39 418.07 235.38 416.02 233.87C413.96 232.36 411.45 231.6 408.49 231.6C405.53 231.6 402.84 232.37 400.69 233.9C398.53 235.43 396.78 237.53 395.44 240.19C394.17 242.65 393.28 245.46 392.77 248.6C392.26 251.75 392 254.79 392 257.74C392 261.61 392.31 265.19 392.92 268.48C393.53 271.77 394.51 274.7 395.86 277.29C397.2 279.87 398.89 281.9 400.93 283.37C402.97 284.84 405.49 285.58 408.49 285.58C413.43 285.58 417.35 283.14 420.23 278.26C423.12 273.38 424.56 266.64 424.56 258.05V258.04Z" fill="#1D1D1B"/>
<path d="M509.7 288.36H481.16V284.37C482.07 284.29 483.06 284.21 484.15 284.13C485.23 284.05 486.13 283.89 486.84 283.65C487.94 283.29 488.76 282.65 489.3 281.74C489.83 280.83 490.1 279.65 490.1 278.2V247.52C490.1 243.28 489.12 240.02 487.16 237.72C485.2 235.42 482.82 234.27 480.01 234.27C477.91 234.27 475.99 234.6 474.25 235.27C472.51 235.94 470.97 236.75 469.62 237.72C468.31 238.65 467.28 239.65 466.5 240.72C465.73 241.79 465.16 242.65 464.81 243.29V277.6C464.81 278.97 465.09 280.1 465.64 280.99C466.19 281.88 467.02 282.56 468.13 283.05C468.96 283.45 469.86 283.76 470.82 283.96C471.79 284.16 472.78 284.3 473.81 284.38V288.37H445.21V284.38C446.12 284.3 447.05 284.22 448.02 284.14C448.99 284.06 449.83 283.9 450.54 283.66C451.64 283.3 452.46 282.66 453 281.76C453.53 280.85 453.8 279.67 453.8 278.22V241.41C453.8 240.04 453.51 238.78 452.94 237.63C452.37 236.48 451.57 235.55 450.54 234.82C449.79 234.34 448.9 233.98 447.87 233.76C446.84 233.54 445.74 233.39 444.55 233.31V229.32L463.97 227.99L464.8 228.84V237.25H465.1C466.05 236.28 467.23 235.12 468.65 233.77C470.07 232.42 471.41 231.32 472.68 230.47C474.14 229.5 475.88 228.7 477.89 228.05C479.9 227.41 482.17 227.08 484.7 227.08C490.3 227.08 494.46 228.87 497.16 232.44C499.86 236.01 501.22 240.76 501.22 246.69V277.73C501.22 279.14 501.46 280.28 501.93 281.15C502.4 282.02 503.21 282.69 504.36 283.18C505.31 283.58 506.13 283.87 506.82 284.03C507.51 284.19 508.47 284.31 509.69 284.39V288.38V288.36H509.7Z" fill="#1D1D1B"/>
<path d="M568.73 274.32C566.28 279.08 563.01 282.87 558.9 285.7C554.79 288.52 550.08 289.94 544.75 289.94C540.05 289.94 535.94 289.09 532.41 287.4C528.88 285.71 525.97 283.41 523.68 280.5C521.39 277.59 519.68 274.21 518.56 270.33C517.44 266.45 516.87 262.36 516.87 258.05C516.87 254.18 517.47 250.38 518.68 246.64C519.88 242.91 521.65 239.55 523.98 236.56C526.23 233.7 529.02 231.39 532.36 229.63C535.69 227.87 539.44 227 543.58 227C547.72 227 551.49 227.69 554.53 229.06C557.57 230.43 560.04 232.31 561.93 234.69C563.75 236.95 565.1 239.61 565.99 242.68C566.88 245.75 567.32 249.07 567.32 252.66V256.65H528.66C528.66 260.57 529.02 264.13 529.76 267.33C530.49 270.52 531.64 273.33 533.22 275.76C534.76 278.1 536.77 279.96 539.26 281.31C541.75 282.66 544.71 283.34 548.14 283.34C551.57 283.34 554.68 282.5 557.23 280.82C559.78 279.14 562.23 276.11 564.6 271.73L568.74 274.33H568.73V274.32ZM555.65 251.57C555.65 249.32 555.46 246.9 555.09 244.33C554.71 241.76 554.11 239.6 553.28 237.87C552.37 236.02 551.13 234.51 549.55 233.35C547.97 232.18 545.94 231.6 543.45 231.6C539.31 231.6 535.86 233.36 533.12 236.88C530.38 240.4 528.89 245.3 528.65 251.57H555.65Z" fill="#1D1D1B"/>
<path d="M614.02 259.13C615.64 260.58 616.88 262.26 617.75 264.15C618.62 266.05 619.05 268.37 619.05 271.11C619.05 276.64 617.03 281.16 612.98 284.67C608.93 288.18 603.69 289.93 597.26 289.93C593.87 289.93 590.74 289.3 587.88 288.05C585.02 286.8 582.97 285.65 581.75 284.6L580.57 288.53H576.13L575.54 267.77H579.62C579.94 269.35 580.61 271.19 581.63 273.3C582.66 275.4 583.9 277.31 585.36 279.01C586.9 280.79 588.74 282.29 590.9 283.5C593.05 284.71 595.47 285.32 598.15 285.32C601.94 285.32 604.86 284.44 606.91 282.67C608.96 280.9 609.99 278.38 609.99 275.09C609.99 273.4 609.66 271.93 609.01 270.7C608.36 269.47 607.4 268.39 606.14 267.46C604.84 266.53 603.24 265.7 601.35 264.95C599.45 264.2 597.34 263.47 595.01 262.74C593.15 262.18 591.09 261.4 588.82 260.41C586.55 259.42 584.61 258.26 582.99 256.93C581.25 255.52 579.83 253.78 578.73 251.73C577.62 249.67 577.07 247.25 577.07 244.47C577.07 239.59 578.85 235.45 582.4 232.06C585.95 228.67 590.71 226.98 596.67 226.98C598.96 226.98 601.3 227.28 603.69 227.89C606.08 228.5 608.02 229.22 609.52 230.07L610.88 226.92H615.14L616.03 246.1H611.95C611.12 241.81 609.33 238.31 606.59 235.62C603.85 232.93 600.5 231.58 596.55 231.58C593.31 231.58 590.77 232.41 588.91 234.08C587.05 235.75 586.13 237.76 586.13 240.11C586.13 241.93 586.44 243.44 587.05 244.65C587.66 245.86 588.58 246.89 589.8 247.74C590.98 248.55 592.47 249.3 594.27 250.01C596.06 250.72 598.29 251.51 600.93 252.4C603.54 253.25 605.99 254.24 608.3 255.37C610.61 256.5 612.51 257.75 614.01 259.12H614.02V259.13Z" fill="#1D1D1B"/>
<path d="M70.9501 210.17C70.2001 212.51 69.7601 212.07 68.8401 210.14C65.0601 202.17 62.1401 193.91 59.7701 185.43C54.8701 167.94 53.2301 150.32 57.5801 132.46C62.4801 112.31 74.6701 97.24 91.1801 85.4C111.71 70.67 135.21 62.61 159.23 55.74C170.71 52.46 180.36 46.9 183.38 34.03C186.79 19.53 176.88 6.92999 162.44 7.90999C155.38 8.38999 150.91 13.13 147.17 18.65C144.67 22.33 143.71 26.72 141.65 31.42C140.82 15.39 150.1 2.41999 162.95 0.339993C175.89 -1.76001 195.93 5.59999 195.93 34.15C196.27 41.33 191.53 51.54 188.19 54.87C179.78 63.28 170.23 68.67 159.12 72.23C138.68 78.78 118.89 86.85 101.06 99.1C70.4401 120.15 63.8401 149.31 67.8201 182.16C67.7501 191.62 69.5601 200.87 70.9601 210.16L70.9501 210.17Z" fill="#D6B078"/>
</g>
<defs>
<clipPath id="clip0_106_193">
<rect width="619.05" height="290.18" fill="white"/>
</clipPath>
</defs>
</svg>
